<svg width="640" height="900" viewBox="0 0 640 900" fill="none" xmlns="http://www.w3.org/2000/svg">
  <rect width="640" height="900" rx="40" fill="url(#grad)"/>
  <defs>
    <linearGradient id="grad" x1="120" y1="60" x2="520" y2="820" gradientUnits="userSpaceOnUse">
      <stop stop-color="#00C9FF"/>
      <stop offset="1" stop-color="#92FE9D"/>
    </linearGradient>
  </defs>
  <g opacity="0.18">
    <circle cx="180" cy="200" r="130" fill="white"/>
    <circle cx="470" cy="260" r="160" fill="white"/>
    <circle cx="260" cy="620" r="220" fill="white"/>
    <circle cx="520" cy="640" r="140" fill="white"/>
  </g>
  <g filter="url(#shadow)">
    <rect x="110" y="160" width="420" height="520" rx="36" fill="rgba(255,255,255,0.85)"/>
  </g>
  <g transform="translate(150 220)">
    <rect width="340" height="180" rx="28" fill="#0F172A"/>
    <polyline points="20,120 80,80 140,110 200,60 260,90 320,40" fill="none" stroke="#38BDF8" stroke-width="8" stroke-linecap="round" stroke-linejoin="round"/>
    <circle cx="80" cy="80" r="10" fill="#38BDF8"/>
    <circle cx="200" cy="60" r="10" fill="#38BDF8"/>
    <circle cx="320" cy="40" r="10" fill="#38BDF8"/>
  </g>
  <g transform="translate(150 430)">
    <rect width="340" height="220" rx="28" fill="#F8FAFC"/>
    <g transform="translate(40 48)">
      <rect width="84" height="84" rx="20" fill="#38BDF8" opacity="0.9"/>
      <rect x="110" width="84" height="84" rx="20" fill="#22D3EE" opacity="0.9"/>
      <rect x="220" width="84" height="84" rx="20" fill="#2DD4BF" opacity="0.9"/>
    </g>
    <text x="40" y="162" fill="#0F172A" font-family="'Inter', sans-serif" font-size="32" font-weight="700">Analytics View</text>
    <text x="40" y="198" fill="#0F172A" font-family="'Inter', sans-serif" font-size="18" opacity="0.75">Lihat performa funnel dalam satu panel</text>
  </g>
  <defs>
    <filter id="shadow" x="80" y="140" width="480" height="580" filterUnits="userSpaceOnUse">
      <feGaussianBlur stdDeviation="18" result="blur"/>
      <feOffset dy="18"/>
      <feComponentTransfer>
        <feFuncA type="linear" slope="0.18"/>
      </feComponentTransfer>
      <feComposite in2="SourceAlpha" operator="in"/>
      <feComposite in="SourceGraphic"/>
    </filter>
  </defs>
</svg>
