<svg width="640" height="900" viewBox="0 0 640 900" fill="none" xmlns="http://www.w3.org/2000/svg">
  <rect width="640" height="900" rx="40" fill="url(#paint0_linear)"/>
  <defs>
    <linearGradient id="paint0_linear" x1="80" y1="40" x2="560" y2="860" gradientUnits="userSpaceOnUse">
      <stop stop-color="#5B5FFF"/>
      <stop offset="1" stop-color="#9F6BFF"/>
    </linearGradient>
  </defs>
  <g opacity="0.14">
    <circle cx="160" cy="200" r="120" fill="white"/>
    <circle cx="480" cy="300" r="160" fill="white"/>
    <circle cx="260" cy="620" r="200" fill="white"/>
    <circle cx="520" cy="640" r="140" fill="white"/>
  </g>
  <g filter="url(#dropshadow)">
    <rect x="120" y="180" width="400" height="520" rx="36" fill="rgba(255,255,255,0.8)"/>
  </g>
  <g transform="translate(160 240)">
    <rect width="320" height="60" rx="16" fill="#5135FF" opacity="0.16"/>
    <rect y="180" width="320" height="60" rx="16" fill="#5135FF" opacity="0.16"/>
    <rect y="90" width="240" height="60" rx="16" fill="#5135FF" opacity="0.32"/>
    <rect y="270" width="180" height="60" rx="16" fill="#5135FF" opacity="0.48"/>
  </g>
  <g transform="translate(210 520)">
    <circle cx="45" cy="45" r="45" fill="#FFB947"/>
    <circle cx="160" cy="45" r="45" fill="#00C4B4"/>
    <circle cx="275" cy="45" r="45" fill="#FF6F91"/>
  </g>
  <g transform="translate(140 640)">
    <rect width="360" height="140" rx="24" fill="rgba(255,255,255,0.65)"/>
    <text x="32" y="62" fill="#2B1F60" font-family="'Inter', sans-serif" font-size="28" font-weight="700">Affiliate UGC</text>
    <text x="32" y="102" fill="#2B1F60" font-family="'Inter', sans-serif" font-size="20" opacity="0.8">Produk terjual oleh komunitas Anda</text>
  </g>
  <defs>
    <filter id="dropshadow" x="90" y="160" width="460" height="580" filterUnits="userSpaceOnUse">
      <feGaussianBlur stdDeviation="18" result="blur"/>
      <feOffset dy="20"/>
      <feComponentTransfer>
        <feFuncA type="linear" slope="0.18"/>
      </feComponentTransfer>
      <feComposite in2="SourceAlpha" operator="in"/>
      <feComposite in="SourceGraphic"/>
    </filter>
  </defs>
</svg>
